<svg xmlns="http://www.w3.org/2000/svg" viewBox="0 0 256 256">
<defs>
<linearGradient id="sh" x1="0" y1="0" x2="0.28" y2="1"><stop offset="0" stop-color="#fff" stop-opacity="0.24"></stop><stop offset="0.52" stop-color="#fff" stop-opacity="0"></stop></linearGradient>
<linearGradient id="sd" x1="0" y1="0.5" x2="0.15" y2="1"><stop offset="0" stop-color="#3a1206" stop-opacity="0"></stop><stop offset="1" stop-color="#3a1206" stop-opacity="0.18"></stop></linearGradient>
<filter id="rg" x="-6%" y="-6%" width="112%" height="112%"><feTurbulence type="fractalNoise" baseFrequency="0.03" numOctaves="2" seed="11" result="n"></feTurbulence><feDisplacementMap in="SourceGraphic" in2="n" scale="2.2" xChannelSelector="R" yChannelSelector="G"></feDisplacementMap></filter>
</defs>
<g filter="url(#rg)" stroke-linejoin="round" stroke-linecap="round">
<path d="M65.94 23.37 H190.06 A44.51 44.51 0 0 1 234.57 67.88 V156.89 A44.51 44.51 0 0 1 190.06 201.41 H134 C121 202 110 206.5 101 214.5 C94 220.8 88.5 226 81.5 229.3 C78 230.8 75.8 228.4 77.3 225.2 C80.8 217.8 83.5 209.8 84.8 203.5 C84.5 202.2 83.4 201.41 81.8 201.41 H65.94 A44.51 44.51 0 0 1 21.43 156.89 V67.88 A44.51 44.51 0 0 1 65.94 23.37 Z" fill="#B4482D" stroke="#29261DEB" stroke-width="6.4" stroke-opacity="0.3"></path>
<path d="M65.94 23.37 H190.06 A44.51 44.51 0 0 1 234.57 67.88 V156.89 A44.51 44.51 0 0 1 190.06 201.41 H134 C121 202 110 206.5 101 214.5 C94 220.8 88.5 226 81.5 229.3 C78 230.8 75.8 228.4 77.3 225.2 C80.8 217.8 83.5 209.8 84.8 203.5 C84.5 202.2 83.4 201.41 81.8 201.41 H65.94 A44.51 44.51 0 0 1 21.43 156.89 V67.88 A44.51 44.51 0 0 1 65.94 23.37 Z" fill="url(#sd)"></path><path d="M65.94 23.37 H190.06 A44.51 44.51 0 0 1 234.57 67.88 V156.89 A44.51 44.51 0 0 1 190.06 201.41 H134 C121 202 110 206.5 101 214.5 C94 220.8 88.5 226 81.5 229.3 C78 230.8 75.8 228.4 77.3 225.2 C80.8 217.8 83.5 209.8 84.8 203.5 C84.5 202.2 83.4 201.41 81.8 201.41 H65.94 A44.51 44.51 0 0 1 21.43 156.89 V67.88 A44.51 44.51 0 0 1 65.94 23.37 Z" fill="url(#sh)"></path>
<path d="M65.94 23.37 H190.06 A44.51 44.51 0 0 1 234.57 67.88 V156.89 A44.51 44.51 0 0 1 190.06 201.41 H134 C121 202 110 206.5 101 214.5 C94 220.8 88.5 226 81.5 229.3 C78 230.8 75.8 228.4 77.3 225.2 C80.8 217.8 83.5 209.8 84.8 203.5 C84.5 202.2 83.4 201.41 81.8 201.41 H65.94 A44.51 44.51 0 0 1 21.43 156.89 V67.88 A44.51 44.51 0 0 1 65.94 23.37 Z" fill="none" stroke="#29261DEB" stroke-width="3.4"></path>
<path d="M83.77,91.89c8.02,3.76 14.37,10.69 17.71,19.34c3.34,8.65 3.41,18.35 0.19,27.05c-3.21,8.71 -9.46,15.74 -17.43,19.63c-7.97,3.89 -17.04,4.32 -25.3,1.22c-8.26,-3.11 -15.08,-9.51 -19.02,-17.87c-3.94,-8.36 -4.69,-18.03 -2.09,-26.96c3.09,-8.43 8,-15.95 14.33,-21.96c6.52,-7.12 12.88,-14.39 19.25,-21.67l3.87,-4.43c1.87,-2.08 4.63,-2.95 7.26,-2.28c2.63,0.66 4.73,2.76 5.53,5.51c0.8,2.75 0.18,5.75 -1.63,7.89l-4.59,5.25c-1.2,1.4 -1.68,3.33 -1.3,5.18c0.39,1.85 1.6,3.38 3.24,4.1Zm80.24,0c8.02,3.76 14.37,10.69 17.71,19.34c3.34,8.65 3.41,18.35 0.19,27.05c-3.22,8.71 -9.46,15.74 -17.43,19.63c-7.97,3.89 -17.04,4.32 -25.31,1.22c-8.26,-3.11 -15.08,-9.51 -19.02,-17.87c-3.93,-8.36 -4.69,-18.03 -2.09,-26.96c3.09,-8.43 8,-15.95 14.33,-21.96c6.52,-7.12 12.88,-14.39 19.24,-21.67l3.87,-4.43c1.37,-1.61 3.29,-2.57 5.33,-2.66c2.04,-0.09 4.03,0.7 5.52,2.19c1.49,1.49 2.36,3.55 2.42,5.73c0.06,2.18 -0.71,4.29 -2.12,5.87l-4.59,5.25c-1.2,1.4 -1.68,3.33 -1.3,5.18c0.39,1.85 1.6,3.38 3.24,4.1Z" fill="#F4EDDE" stroke="#29261DEB" stroke-width="6.4" stroke-opacity="0.3"></path>
<path d="M83.77,91.89c8.02,3.76 14.37,10.69 17.71,19.34c3.34,8.65 3.41,18.35 0.19,27.05c-3.21,8.71 -9.46,15.74 -17.43,19.63c-7.97,3.89 -17.04,4.32 -25.3,1.22c-8.26,-3.11 -15.08,-9.51 -19.02,-17.87c-3.94,-8.36 -4.69,-18.03 -2.09,-26.96c3.09,-8.43 8,-15.95 14.33,-21.96c6.52,-7.12 12.88,-14.39 19.25,-21.67l3.87,-4.43c1.87,-2.08 4.63,-2.95 7.26,-2.28c2.63,0.66 4.73,2.76 5.53,5.51c0.8,2.75 0.18,5.75 -1.63,7.89l-4.59,5.25c-1.2,1.4 -1.68,3.33 -1.3,5.18c0.39,1.85 1.6,3.38 3.24,4.1Zm80.24,0c8.02,3.76 14.37,10.69 17.71,19.34c3.34,8.65 3.41,18.35 0.19,27.05c-3.22,8.71 -9.46,15.74 -17.43,19.63c-7.97,3.89 -17.04,4.32 -25.31,1.22c-8.26,-3.11 -15.08,-9.51 -19.02,-17.87c-3.93,-8.36 -4.69,-18.03 -2.09,-26.96c3.09,-8.43 8,-15.95 14.33,-21.96c6.52,-7.12 12.88,-14.39 19.24,-21.67l3.87,-4.43c1.37,-1.61 3.29,-2.57 5.33,-2.66c2.04,-0.09 4.03,0.7 5.52,2.19c1.49,1.49 2.36,3.55 2.42,5.73c0.06,2.18 -0.71,4.29 -2.12,5.87l-4.59,5.25c-1.2,1.4 -1.68,3.33 -1.3,5.18c0.39,1.85 1.6,3.38 3.24,4.1Z" fill="none" stroke="#29261DEB" stroke-width="3.4"></path>
<rect x="197.24" y="45.39" width="22" height="22" rx="6.8" fill="#F4EDDE" stroke="#29261DEB" stroke-width="6.4" stroke-opacity="0.3"></rect><rect x="197.24" y="45.39" width="22" height="22" rx="6.8" fill="none" stroke="#29261DEB" stroke-width="3.4"></rect><rect x="197.24" y="82.72" width="22" height="22" rx="6.8" fill="#F4EDDE" stroke="#29261DEB" stroke-width="6.4" stroke-opacity="0.3"></rect><rect x="197.24" y="82.72" width="22" height="22" rx="6.8" fill="none" stroke="#29261DEB" stroke-width="3.4"></rect><rect x="197.24" y="120.05" width="22" height="22" rx="6.8" fill="#F4EDDE" stroke="#29261DEB" stroke-width="6.4" stroke-opacity="0.3"></rect><rect x="197.24" y="120.05" width="22" height="22" rx="6.8" fill="none" stroke="#29261DEB" stroke-width="3.4"></rect><rect x="197.24" y="157.38" width="22" height="22" rx="6.8" fill="#F4EDDE" stroke="#29261DEB" stroke-width="6.4" stroke-opacity="0.3"></rect><rect x="197.24" y="157.38" width="22" height="22" rx="6.8" fill="none" stroke="#29261DEB" stroke-width="3.4"></rect>
</g>
</svg>